<svg width="56" height="56" viewBox="0 0 56 56" fill="none" xmlns="http://www.w3.org/2000/svg">
<path d="M52.475 0.5H3.525C2.72272 0.5 1.9533 0.818705 1.386 1.386C0.818705 1.9533 0.5 2.72272 0.5 3.525V52.475C0.5 52.8722 0.578244 53.2656 0.730265 53.6326C0.882285 53.9996 1.10511 54.3331 1.386 54.614C1.6669 54.8949 2.00037 55.1177 2.36738 55.2697C2.73439 55.4218 3.12775 55.5 3.525 55.5H29.87V34.1875H22.72V25.9375H29.87V19.75C29.7219 18.2973 29.8934 16.8298 30.3725 15.4505C30.8515 14.0711 31.6266 12.8132 32.6433 11.7651C33.66 10.717 34.8936 9.90401 36.2578 9.38315C37.6219 8.8623 39.0835 8.64619 40.54 8.75C42.6804 8.73683 44.8198 8.84701 46.9475 9.08V16.505H42.575C39.11 16.505 38.45 18.155 38.45 20.5475V25.855H46.7L45.6275 34.105H38.45V55.5H52.475C52.8722 55.5 53.2656 55.4218 53.6326 55.2697C53.9996 55.1177 54.3331 54.8949 54.614 54.614C54.8949 54.3331 55.1177 53.9996 55.2697 53.6326C55.4218 53.2656 55.5 52.8722 55.5 52.475V3.525C55.5 3.12775 55.4218 2.73439 55.2697 2.36738C55.1177 2.00037 54.8949 1.6669 54.614 1.386C54.3331 1.10511 53.9996 0.882285 53.6326 0.730265C53.2656 0.578244 52.8722 0.5 52.475 0.5Z" fill="white"/>
</svg>
