<svg width="56" height="56" viewBox="0 0 56 56" fill="none" xmlns="http://www.w3.org/2000/svg">
<path d="M42.5685 9.63091C41.9099 9.63091 41.2661 9.82681 40.7185 10.1938C40.1708 10.5609 39.744 11.0825 39.492 11.6929C39.2399 12.3032 39.174 12.9748 39.3025 13.6228C39.431 14.2707 39.7481 14.8659 40.2138 15.333C40.6795 15.8001 41.2729 16.1182 41.9189 16.2471C42.5648 16.376 43.2344 16.3099 43.8428 16.0571C44.4513 15.8042 44.9714 15.3761 45.3373 14.8268C45.7032 14.2775 45.8985 13.6317 45.8985 12.9711C45.8985 12.0852 45.5477 11.2356 44.9232 10.6092C44.2987 9.98282 43.4517 9.63091 42.5685 9.63091ZM55.3335 16.367C55.2795 14.0575 54.8483 11.7725 54.057 9.60307C53.3514 7.74685 52.2532 6.06602 50.838 4.67628C49.4639 3.24953 47.7843 2.15492 45.9263 1.47525C43.7691 0.657354 41.4886 0.214914 39.183 0.16701C36.2415 -1.5554e-07 35.298 0 27.75 0C20.202 0 19.2585 -1.5554e-07 16.317 0.16701C14.0114 0.214914 11.7309 0.657354 9.57375 1.47525C7.71915 2.1618 6.04099 3.25547 4.662 4.67628C3.23961 6.05461 2.14834 7.73935 1.47075 9.60307C0.655346 11.7668 0.214258 14.0543 0.1665 16.367C-1.55065e-07 19.3175 0 20.2639 0 27.835C0 35.4061 -1.55065e-07 36.3525 0.1665 39.303C0.214258 41.6157 0.655346 43.9032 1.47075 46.0669C2.14834 47.9306 3.23961 49.6154 4.662 50.9937C6.04099 52.4145 7.71915 53.5082 9.57375 54.1947C11.7309 55.0126 14.0114 55.4551 16.317 55.503C19.2585 55.67 20.202 55.67 27.75 55.67C35.298 55.67 36.2415 55.67 39.183 55.503C41.4886 55.4551 43.7691 55.0126 45.9263 54.1947C47.7843 53.5151 49.4639 52.4205 50.838 50.9937C52.2595 49.6091 53.3586 47.9268 54.057 46.0669C54.8483 43.8975 55.2795 41.6125 55.3335 39.303C55.3335 36.3525 55.5 35.4061 55.5 27.835C55.5 20.2639 55.5 19.3175 55.3335 16.367ZM50.3385 38.969C50.3183 40.7359 49.9993 42.4865 49.395 44.1463C48.9519 45.3577 48.2403 46.4522 47.3138 47.3473C46.4137 48.2673 45.3247 48.9797 44.1225 49.435C42.4678 50.0411 40.7225 50.3611 38.961 50.3814C36.186 50.5205 35.1593 50.5484 27.861 50.5484C20.5627 50.5484 19.536 50.5484 16.761 50.3814C14.932 50.4157 13.1108 50.1332 11.3775 49.5463C10.228 49.0678 9.18901 48.3572 8.325 47.4587C7.40395 46.5645 6.70119 45.469 6.2715 44.2576C5.594 42.5741 5.21823 40.7837 5.1615 38.969C5.1615 36.1855 4.995 35.1556 4.995 27.835C4.995 20.5144 4.995 19.4845 5.1615 16.701C5.17394 14.8947 5.50269 13.1046 6.13275 11.4123C6.62128 10.2375 7.37114 9.19017 8.325 8.3505C9.16808 7.39344 10.21 6.63335 11.3775 6.1237C13.069 5.51145 14.8518 5.19145 16.65 5.17731C19.425 5.17731 20.4517 5.0103 27.75 5.0103C35.0483 5.0103 36.075 5.0103 38.85 5.17731C40.6115 5.19758 42.3568 5.51758 44.0115 6.1237C45.2725 6.59314 46.4044 7.35636 47.3138 8.3505C48.2231 9.20553 48.9337 10.2509 49.395 11.4123C50.0118 13.1073 50.331 14.8967 50.3385 16.701C50.4772 19.4845 50.505 20.5144 50.505 27.835C50.505 35.1556 50.4772 36.1855 50.3385 38.969ZM27.75 13.5556C24.9356 13.5611 22.186 14.4033 19.8486 15.9757C17.5112 17.548 15.6909 19.7801 14.6177 22.3898C13.5445 24.9995 13.2665 27.8697 13.8189 30.6378C14.3713 33.4059 15.7294 35.9476 17.7214 37.9418C19.7134 39.936 22.25 41.2933 25.0107 41.842C27.7714 42.3907 30.6323 42.1063 33.2319 41.0247C35.8316 39.9431 38.0532 38.1129 39.6163 35.7653C41.1793 33.4177 42.0135 30.658 42.0135 27.835C42.0172 25.9564 41.6505 24.0957 40.9347 22.3597C40.2188 20.6238 39.1679 19.047 37.8423 17.7199C36.5167 16.3928 34.9427 15.3418 33.2106 14.6271C31.4786 13.9124 29.6228 13.5483 27.75 13.5556ZM27.75 37.1041C25.9224 37.1041 24.1357 36.5604 22.6161 35.5419C21.0965 34.5234 19.9121 33.0758 19.2127 31.3821C18.5133 29.6884 18.3303 27.8247 18.6868 26.0267C19.0434 24.2287 19.9235 22.5771 21.2158 21.2808C22.5081 19.9845 24.1547 19.1017 25.9472 18.744C27.7397 18.3864 29.5978 18.57 31.2863 19.2715C32.9748 19.9731 34.418 21.1611 35.4334 22.6854C36.4488 24.2097 36.9907 26.0018 36.9907 27.835C36.9907 29.0522 36.7517 30.2575 36.2873 31.3821C35.8229 32.5067 35.1423 33.5285 34.2842 34.3892C33.4261 35.2499 32.4074 35.9327 31.2863 36.3985C30.1651 36.8643 28.9635 37.1041 27.75 37.1041Z" fill="white"/>
</svg>
