<svg width="150" height="72" viewBox="0 0 150 72" fill="none" xmlns="http://www.w3.org/2000/svg">
<g clip-path="url(#clip0_4_221)">
<g clip-path="url(#clip1_4_221)">
<path d="M27.1232 64.467L1.02393 36.0106L27.3047 7.3551L32.6493 13.1814L11.7118 36.0106L32.4679 58.6422L27.1232 64.467Z" fill="#393536"/>
<path d="M46.3394 67.6516L89.5935 4.44574" stroke="#FCA61F" stroke-width="8.98"/>
<path d="M34.9022 29.8315V37.4113H32.7302V33.6336L31.6582 37.4113H29.7934L28.7214 33.6336V37.4113H26.5383V29.8315H29.2127L30.7426 34.3818L32.2389 29.8315H34.9022Z" fill="#393536"/>
<path d="M42.1795 36.2677H39.8624L39.5162 37.4113H37.2271L39.7731 29.8315H42.2856L44.8204 37.4113H42.5256L42.1795 36.2677ZM41.6491 34.4791L41.0181 32.3682L40.3928 34.4791H41.6491Z" fill="#393536"/>
<path d="M53.8217 37.4113H51.6387L49.3327 33.5971V37.4113H47.1497V29.8315H49.3327L51.6387 33.7066V29.8315H53.8217V37.4113Z" fill="#393536"/>
<path d="M60.1406 37.4113L58.8286 34.6921H58.823V37.4113H56.6399V29.8315H59.8838C60.4449 29.8315 60.9251 29.941 61.3243 30.16C61.7263 30.3759 62.025 30.671 62.2232 31.0481C62.4242 31.4223 62.5247 31.8435 62.5247 32.3135C62.5247 32.8214 62.3935 33.2716 62.1339 33.664C61.8771 34.0579 61.5058 34.3392 61.0228 34.5096L62.5359 37.4113H60.1406ZM58.823 33.1043H59.6884C59.8964 33.1043 60.0527 33.0541 60.1574 32.9522C60.2607 32.8473 60.3137 32.6846 60.3137 32.4656C60.3137 32.2679 60.2593 32.1112 60.1518 31.9971C60.0429 31.88 59.8894 31.8207 59.6884 31.8207H58.823V33.1043Z" fill="#393536"/>
<path d="M68.5601 37.4113L67.248 34.6921H67.2424V37.4113H65.0593V29.8315H68.3032C68.8644 29.8315 69.3445 29.941 69.7437 30.16C70.1457 30.3759 70.4445 30.671 70.6427 31.0481C70.8437 31.4223 70.9442 31.8435 70.9442 32.3135C70.9442 32.8214 70.813 33.2716 70.5533 33.664C70.2965 34.0579 69.9252 34.3392 69.4422 34.5096L70.9553 37.4113H68.5601ZM67.2424 33.1043H68.1078C68.3158 33.1043 68.4721 33.0541 68.5768 32.9522C68.6801 32.8473 68.7332 32.6846 68.7332 32.4656C68.7332 32.2679 68.6787 32.1112 68.5712 31.9971C68.4624 31.88 68.3088 31.8207 68.1078 31.8207H67.2424V33.1043Z" fill="#393536"/>
<path d="M75.6618 29.8315V37.4113H73.4788V29.8315H75.6618Z" fill="#393536"/>
<path d="M83.0579 38.6402L82.3879 37.4417C82.2386 37.4691 82.0655 37.4843 81.8687 37.4843C81.2126 37.4843 80.6124 37.3185 80.0653 36.9855C79.5181 36.6494 79.084 36.1855 78.7643 35.5924C78.4433 35.0008 78.2842 34.3332 78.2842 33.591C78.2842 32.8488 78.4433 32.1827 78.7643 31.5896C79.084 30.9934 79.5181 30.5311 80.0653 30.2026C80.6124 29.871 81.2126 29.7037 81.8687 29.7037C82.5233 29.7037 83.1221 29.871 83.6665 30.2026C84.2095 30.5311 84.6394 30.9934 84.9563 31.5896C85.2759 32.1827 85.4364 32.8488 85.4364 33.591C85.4364 34.1963 85.3276 34.7529 85.1126 35.2639C84.8962 35.7749 84.5989 36.2099 84.2193 36.5657L85.6318 38.6402H83.0579ZM80.5063 33.591C80.5063 34.102 80.6236 34.5096 80.8581 34.8137C81.0926 35.1179 81.429 35.27 81.8687 35.27C82.3 35.27 82.6336 35.1179 82.8681 34.8137C83.1054 34.5096 83.2254 34.102 83.2254 33.591C83.2254 33.0678 83.1054 32.6572 82.8681 32.3561C82.6336 32.0519 82.3 31.8998 81.8687 31.8998C81.429 31.8998 81.0926 32.0519 80.8581 32.3561C80.6236 32.6572 80.5063 33.0678 80.5063 33.591Z" fill="#393536"/>
<path d="M90.191 29.8315V34.102C90.191 34.4518 90.2608 34.7286 90.4031 34.9354C90.5441 35.1392 90.7716 35.2396 91.0843 35.2396C91.3998 35.2396 91.6329 35.1392 91.7822 34.9354C91.9344 34.7286 92.0111 34.4518 92.0111 34.102V29.8315H94.1775V34.102C94.1775 34.8244 94.0393 35.4403 93.7643 35.9513C93.4921 36.4623 93.1166 36.8456 92.6365 37.1011C92.1591 37.3566 91.6259 37.4843 91.034 37.4843C90.445 37.4843 89.923 37.3566 89.4651 37.1011C89.0101 36.8456 88.6555 36.4654 88.3987 35.9574C88.1447 35.451 88.019 34.832 88.019 34.102V29.8315H90.191Z" fill="#393536"/>
<path d="M99.1421 31.7234V32.6602H101.303V34.4426H99.1421V35.5133H101.599V37.4113H96.959V29.8315H101.599V31.7234H99.1421Z" fill="#393536"/>
<path d="M106.676 35.5133H109.468V37.4113H104.259V35.6228L107.011 31.7173H104.259V29.8315H109.468V31.62L106.676 35.5133Z" fill="#393536"/>
<path d="M22.3014 40.9044C22.1339 40.9044 22.0474 40.9562 22.0446 41.0565L22.0111 41.8048C21.9999 42.0572 21.8841 42.1819 21.6649 42.1819V42.2184C21.8841 42.2184 21.9999 42.3447 22.0111 42.5956L22.0446 43.3439C22.0474 43.4488 22.1339 43.502 22.3014 43.502V43.8609H21.9943C21.8631 43.8609 21.7501 43.8244 21.6538 43.7514C21.5602 43.6815 21.5142 43.5811 21.5142 43.4473V42.5469C21.5142 42.4785 21.4863 42.4283 21.4304 42.3949C21.3746 42.3629 21.3034 42.3462 21.2183 42.3462V42.0542C21.2964 42.0542 21.3648 42.0359 21.4248 41.9994C21.4835 41.9629 21.5142 41.9112 21.5142 41.8413V40.9592C21.5142 40.8254 21.5602 40.725 21.6538 40.655C21.7501 40.582 21.8631 40.5455 21.9943 40.5455H22.3014V40.9044Z" fill="#393536"/>
<path d="M26.9565 40.728C27.0751 40.728 27.1826 40.7554 27.2803 40.8071C27.3808 40.8603 27.459 40.9349 27.5148 41.0322C27.5734 41.1265 27.6041 41.2314 27.6041 41.3485C27.6041 41.6649 27.4729 41.8641 27.2133 41.9447V41.9569C27.5106 42.0299 27.66 42.2428 27.66 42.5956C27.66 42.7294 27.6279 42.8481 27.565 42.9484C27.505 43.0503 27.4227 43.1294 27.3194 43.1857C27.2189 43.2435 27.1044 43.2709 26.9788 43.2709H25.4043V40.728H26.9565ZM26.1525 41.7196H26.6717C26.7192 41.7196 26.761 41.7014 26.7945 41.6649C26.828 41.6253 26.8448 41.5767 26.8448 41.5189V41.4824C26.8448 41.4261 26.828 41.3789 26.7945 41.3424C26.761 41.3059 26.7192 41.2877 26.6717 41.2877H26.1525V41.7196ZM26.1525 42.6808H26.7275C26.775 42.6808 26.8169 42.6625 26.8504 42.626C26.8839 42.5865 26.9006 42.5378 26.9006 42.48V42.4435C26.9006 42.3873 26.8839 42.3401 26.8504 42.3036C26.8169 42.2641 26.775 42.2428 26.7275 42.2428H26.1525V42.6808Z" fill="#393536"/>
<path d="M32.3223 43.2709L32.2274 42.9119H31.4067L31.3062 43.2709H30.5413L31.3955 40.728H32.2665L33.1208 43.2709H32.3223ZM31.563 42.3401H32.0711L31.8254 41.4337H31.8087L31.563 42.3401Z" fill="#393536"/>
<path d="M37.2245 40.6794C37.5707 40.6794 37.8443 40.7752 38.0453 40.9653C38.2491 41.1524 38.3524 41.4215 38.3524 41.7744H37.6321C37.6321 41.6253 37.5958 41.5067 37.526 41.4215C37.4548 41.3364 37.3543 41.2938 37.2245 41.2938C37.071 41.2938 36.9593 41.347 36.8895 41.452C36.8183 41.5539 36.7834 41.6953 36.7834 41.8778V42.115C36.7834 42.2975 36.8183 42.442 36.8895 42.547C36.9593 42.6534 37.0696 42.7051 37.2189 42.7051C37.3641 42.7051 37.473 42.6656 37.5484 42.5835C37.6223 42.5029 37.66 42.3873 37.66 42.2367H38.3524C38.3524 42.5865 38.2533 42.8542 38.0564 43.0397C37.8582 43.2222 37.5819 43.3135 37.2245 43.3135C36.8253 43.3135 36.5238 43.204 36.32 42.985C36.1148 42.7629 36.0129 42.4344 36.0129 41.9995C36.0129 41.566 36.1148 41.2375 36.32 41.014C36.5238 40.7919 36.8253 40.6794 37.2245 40.6794Z" fill="#393536"/>
<path d="M43.0481 40.728H43.9805L43.143 41.7744L43.9973 43.2709H43.1095L42.6238 42.3401L42.2162 42.699V43.2709H41.468V40.728H42.2162V41.8109L43.0481 40.728Z" fill="#393536"/>
<path d="M47.0093 40.728H49.0304V41.3364H47.7574V41.6892H48.8462V42.2732H47.7574V42.6625H49.0528V43.2709H47.0093V40.728Z" fill="#393536"/>
<path d="M53.8435 43.2709L52.8608 42.0359V43.2709H52.1741V40.728H52.8273L53.81 41.9812V40.728H54.4967V43.2709H53.8435Z" fill="#393536"/>
<path d="M58.7257 40.728C59.5436 40.728 59.954 41.1523 59.954 41.9994C59.954 42.8481 59.5436 43.2709 58.7257 43.2709H57.7151V40.728H58.7257ZM58.4633 42.6625H58.7145C59.0272 42.6625 59.1835 42.4785 59.1835 42.1089V41.8899C59.1835 41.5219 59.0272 41.3364 58.7145 41.3364H58.4633V42.6625Z" fill="#393536"/>
<path d="M67.9256 40.728C68.7436 40.728 69.154 41.1523 69.154 41.9994C69.154 42.8481 68.7436 43.2709 67.9256 43.2709H66.915V40.728H67.9256ZM67.6632 42.6625H67.9145C68.2271 42.6625 68.3835 42.4785 68.3835 42.1089V41.8899C68.3835 41.5219 68.2271 41.3364 67.9145 41.3364H67.6632V42.6625Z" fill="#393536"/>
<path d="M72.2695 40.728H74.2907V41.3364H73.0177V41.6892H74.1064V42.2732H73.0177V42.6625H74.313V43.2709H72.2695V40.728Z" fill="#393536"/>
<path d="M78.0707 43.2709L77.2388 40.728H78.0428L78.5118 42.4253H78.5229L78.9975 40.728H79.7624L78.9361 43.2709H78.0707Z" fill="#393536"/>
<path d="M82.7888 40.728H84.81V41.3364H83.537V41.6892H84.6257V42.2732H83.537V42.6625H84.8323V43.2709H82.7888V40.728Z" fill="#393536"/>
<path d="M87.9536 40.728H88.7018V42.6199H89.9022V43.2709H87.9536V40.728Z" fill="#393536"/>
<path d="M94.0929 40.6794C94.4949 40.6794 94.8048 40.7934 95.0253 41.02C95.2445 41.2436 95.3547 41.5706 95.3547 41.9995C95.3547 42.4299 95.2445 42.7568 95.0253 42.9789C94.8048 43.2024 94.4949 43.3135 94.0929 43.3135C93.6909 43.3135 93.3796 43.2024 93.1605 42.9789C92.9399 42.7568 92.8311 42.4299 92.8311 41.9995C92.8311 41.566 92.9399 41.2375 93.1605 41.014C93.3796 40.7919 93.6909 40.6794 94.0929 40.6794ZM94.0929 41.2938C93.9324 41.2938 93.8095 41.347 93.7244 41.452C93.642 41.5584 93.6016 41.6999 93.6016 41.8778V42.115C93.6016 42.2975 93.642 42.442 93.7244 42.547C93.8095 42.6534 93.9324 42.7051 94.0929 42.7051C94.252 42.7051 94.3748 42.6534 94.4614 42.547C94.5465 42.442 94.5898 42.2975 94.5898 42.115V41.8778C94.5898 41.6999 94.5465 41.5584 94.4614 41.452C94.3748 41.347 94.252 41.2938 94.0929 41.2938Z" fill="#393536"/>
<path d="M99.7847 40.728C99.9299 40.728 100.058 40.7645 100.17 40.8375C100.282 40.9105 100.368 41.0109 100.432 41.1356C100.495 41.2618 100.527 41.4033 100.527 41.5614V41.6101C100.527 41.7683 100.495 41.9128 100.432 42.042C100.368 42.1683 100.282 42.2671 100.17 42.3401C100.058 42.4131 99.9299 42.4496 99.7847 42.4496H99.2208V43.2709H98.4727V40.728H99.7847ZM99.2208 41.8534H99.5335C99.6117 41.8534 99.6689 41.8322 99.7066 41.7865C99.7471 41.7424 99.768 41.6816 99.768 41.604V41.5797C99.768 41.4991 99.7471 41.4383 99.7066 41.3972C99.6689 41.3531 99.6117 41.3303 99.5335 41.3303H99.2208V41.8534Z" fill="#393536"/>
<path d="M103.637 40.728H105.659V41.3364H104.386V41.6892H105.474V42.2732H104.386V42.6625H105.681V43.2709H103.637V40.728Z" fill="#393536"/>
<path d="M111.019 41.5067C111.019 41.6618 110.98 41.8017 110.901 41.9264C110.826 42.0527 110.714 42.1454 110.566 42.2063L111.086 43.2709H110.243L109.829 42.3401H109.55V43.2709H108.802V40.728H110.231C110.399 40.728 110.541 40.763 110.661 40.8314C110.78 40.9014 110.869 40.9957 110.929 41.1174C110.988 41.236 111.019 41.3653 111.019 41.5067ZM110.254 41.5371C110.254 41.4732 110.233 41.4185 110.192 41.3729C110.15 41.3288 110.103 41.3059 110.047 41.3059H109.55V41.7744H110.047C110.103 41.7744 110.15 41.7531 110.192 41.7074C110.233 41.6633 110.254 41.6071 110.254 41.5371Z" fill="#393536"/>
<path d="M114.352 40.5455C114.478 40.5455 114.588 40.582 114.682 40.655C114.778 40.725 114.827 40.8254 114.827 40.9592V41.8413C114.827 41.9112 114.856 41.9629 114.916 41.9994C114.979 42.0359 115.047 42.0542 115.123 42.0542V42.3462C115.04 42.3462 114.969 42.3629 114.911 42.3949C114.855 42.4283 114.827 42.4785 114.827 42.5469V43.4473C114.827 43.5811 114.778 43.6815 114.682 43.7514C114.588 43.8244 114.478 43.8609 114.352 43.8609H114.04V43.502C114.207 43.502 114.294 43.4488 114.302 43.3439L114.335 42.5956C114.347 42.3447 114.46 42.2184 114.676 42.2184V42.1819C114.46 42.1819 114.347 42.0572 114.335 41.8048L114.302 41.0565C114.294 40.9562 114.207 40.9044 114.04 40.9044V40.5455H114.352Z" fill="#393536"/>
<path d="M108.901 7.51633L135 35.9742L108.719 64.6297L103.375 58.8034L124.312 35.9742L103.556 13.3426L108.901 7.51633Z" fill="#393536"/>
<path d="M3.59204 39.1588L30.124 10.2508" stroke="#FCA61F" stroke-width="8.01"/>
<path d="M105.838 61.7857L132.37 32.8777" stroke="#FCA61F" stroke-width="8.01"/>
</g>
</g>
<defs>
<clipPath id="clip0_4_221">
<rect width="150" height="72" fill="white"/>
</clipPath>
<clipPath id="clip1_4_221">
<rect width="134" height="146" fill="white" transform="translate(1 -37)"/>
</clipPath>
</defs>
</svg>
