<svg width="55" height="55" viewBox="0 0 55 55" fill="none" xmlns="http://www.w3.org/2000/svg">
<path d="M27.4999 0C20.97 0.000277628 14.6532 2.38284 9.67991 6.72139C4.70658 11.0599 1.40119 17.0713 0.355189 23.68C-0.690815 30.2886 0.59082 37.0632 3.97077 42.7917C7.35072 48.5201 12.6084 52.8285 18.8031 54.946C20.1781 55.1928 20.6937 54.347 20.6937 53.6067C20.6937 52.9371 20.6593 50.7167 20.6593 48.3553C13.75 49.6594 11.9625 46.6284 11.4125 45.0424C10.8022 43.4999 9.83476 42.133 8.59376 41.0597C7.63127 40.5311 6.25628 39.227 8.55936 39.1919C9.43877 39.2897 10.2822 39.6034 11.0182 40.1065C11.7542 40.6096 12.3611 41.2872 12.7875 42.0818C13.1636 42.7746 13.6693 43.3844 14.2757 43.8764C14.8821 44.3685 15.5773 44.733 16.3213 44.949C17.0653 45.1651 17.8436 45.2286 18.6116 45.1357C19.3796 45.0429 20.1222 44.7955 20.7967 44.4079C20.9158 42.9745 21.5389 41.6343 22.5499 40.6369C16.4312 39.932 10.0375 37.5 10.0375 26.7154C9.99886 23.9131 11.0074 21.2019 12.8562 19.1378C12.0155 16.7023 12.1139 14.0296 13.1312 11.666C13.1312 11.666 15.4343 10.9258 20.6937 14.556C25.1934 13.2872 29.9438 13.2872 34.4436 14.556C39.7029 10.8906 42.006 11.666 42.006 11.666C43.0235 14.0295 43.1219 16.7024 42.281 19.1378C44.1354 21.1984 45.1448 23.912 45.0998 26.7154C45.0998 37.5353 38.6716 39.932 32.553 40.6369C33.2093 41.3189 33.7147 42.1377 34.035 43.0378C34.3553 43.9378 34.4829 44.898 34.4092 45.8531C34.4092 49.6243 34.3748 52.6552 34.3748 53.6068C34.3748 54.347 34.8904 55.2281 36.2654 54.9461C42.4492 52.8114 47.6918 48.4928 51.0574 42.7615C54.4229 37.0301 55.6924 30.259 54.6391 23.6567C53.5859 17.0545 50.2785 11.0509 45.3073 6.71762C40.3361 2.38436 34.0248 0.00348189 27.4999 0Z" fill="white"/>
</svg>
